<?xml version="1.0" encoding="utf-8"?>
<!-- Generator: Adobe Illustrator 28.0.0, SVG Export Plug-In . SVG Version: 6.00 Build 0)  -->
<svg version="1.1" id="Слой_1" xmlns="http://www.w3.org/2000/svg" xmlns:xlink="http://www.w3.org/1999/xlink" x="0px" y="0px"
	 viewBox="0 0 400 400" style="enable-background:new 0 0 400 400;" xml:space="preserve">
<style type="text/css">
	.st0{fill:#FFFFFF;}
</style>
<g>
	<path d="M344.8,296.1c0,19.2-15.8,35-35,35H90.2c-19.2,0-35-15.8-35-35V76.5c0-19.2,15.7-35,35-35h219.6c19.2,0,35,15.8,35,35
		V296.1z"/>
</g>
<g transform="translate(0.000000,400.000000) scale(0.100000,-0.100000)">
	<path class="st0" d="M1945,3158c-33-62-85-157-116-213c-30-55-71-129-91-165c-19-36-44-81-55-100c-18-30-290-524-380-690
		c-17-30-41-75-55-100s-47-85-73-135c-27-49-85-157-130-240c-45-82-102-186-125-230c-24-44-52-95-62-112l-18-33h209
		c115,0,222,3,239,6c26,5,33,15,52,63c79,207,244,369,505,495c539,260,675,352,977,661l97,100l23-25c13-14,41-46,62-72
		c21-27,42-48,46-48s10,15,14,33c10,52,26,121,91,376c25,101,44,185,42,188c-3,2-81-19-173-48c-93-28-231-70-306-92
		c-76-23-138-44-138-48c0-3,36-27,80-53c44-25,80-50,80-54c0-9-177-185-235-234c-22-18-42-35-45-38c-72-73-334-228-535-317
		c-78-35-272-113-281-113c-3,0,20,46,50,103c111,206,147,275,208,395c34,67,65,122,69,122s27-46,52-102c70-160,98-217,106-222
		c16-10,264,154,302,200c9,11,10,20,2,32c-5,9-61,116-123,237c-187,365-301,585-303,585C2006,3270,1978,3219,1945,3158z"/>
	<path class="st0" d="M2594,2059c-11-18-214-166-261-190c-24-13-46-26-48-30c-3-4,31-87,76-185c44-99,88-197,98-219
		c101-228,123-268,151-282c18-9,92-13,258-13c127,0,232,1,232,3s-27,55-61,118c-80,150-345,667-384,747
		C2627,2068,2609,2082,2594,2059z"/>
</g>
</svg>
